# xmcd CD database file
#
# Track frame offsets:
#	182
#	21397
#	46140
#	64180
#	91770
#	115322
#	137157
#	155842
#	177315
#	200342
#	223820
#	248972
#	266357
#
# Disc length: 3814 seconds
#
# Revision: 0
# Processed by: cddbd v1.4PL0 Copyright (c) Steve Scherf et al.
# Submitted via: CDex 1.50beta8
#
DISCID=be0ee40d
DTITLE=Hank Jones and Satoru Oda Quintet - Silver Screen 2
DYEAR=1991
DGENRE=Jazz
TTITLE0=Les Parapluies De Cherbourg
TTITLE1=Summertime In Venice
TTITLE2=Around The World
TTITLE3=True Love
TTITLE4=The Shadow Of Your Smile
TTITLE5=I Cried For You
TTITLE6=Never On Sunday
TTITLE7=September In The Rain
TTITLE8=Charade
TTITLE9=La Playa
TTITLE10=It's Only A Paper Moon
TTITLE11=It's Wonderful
TTITLE12=Je M'en Fou
EXTD=YEAR: 1991
EXTT0=
EXTT1=
EXTT2=
EXTT3=
EXTT4=
EXTT5=
EXTT6=
EXTT7=
EXTT8=
EXTT9=
EXTT10=
EXTT11=
EXTT12=
PLAYORDER=
